<?xml version="1.0" encoding="UTF-8" standalone="no"?>
<svg
   xmlns:dc="http://purl.org/dc/elements/1.1/"
   xmlns:cc="http://creativecommons.org/ns#"
   xmlns:rdf="http://www.w3.org/1999/02/22-rdf-syntax-ns#"
   xmlns:svg="http://www.w3.org/2000/svg"
   xmlns="http://www.w3.org/2000/svg"
   xmlns:sodipodi="http://sodipodi.sourceforge.net/DTD/sodipodi-0.dtd"
   xmlns:inkscape="http://www.inkscape.org/namespaces/inkscape"
   version="1.0"
   width="1280.000000pt"
   height="640.000000pt"
   viewBox="0 0 1280.000000 640.000000"
   preserveAspectRatio="xMidYMid meet"
   id="svg152"
   sodipodi:docname="truck.svg"
   inkscape:version="0.92.4 (5da689c313, 2019-01-14)">
  <defs
     id="defs156" />
  <sodipodi:namedview
     pagecolor="#ffffff"
     bordercolor="#666666"
     borderopacity="1"
     objecttolerance="10"
     gridtolerance="10"
     guidetolerance="10"
     inkscape:pageopacity="0"
     inkscape:pageshadow="2"
     inkscape:window-width="1858"
     inkscape:window-height="1177"
     id="namedview154"
     showgrid="false"
     inkscape:zoom="0.99785156"
     inkscape:cx="853.33333"
     inkscape:cy="426.66667"
     inkscape:window-x="-8"
     inkscape:window-y="-8"
     inkscape:window-maximized="1"
     inkscape:current-layer="svg152" />
  <metadata
     id="metadata84">
Created by potrace 1.15, written by Peter Selinger 2001-2017
<rdf:RDF>
  <cc:Work
     rdf:about="">
    <dc:format>image/svg+xml</dc:format>
    <dc:type
       rdf:resource="http://purl.org/dc/dcmitype/StillImage" />
    <dc:title></dc:title>
  </cc:Work>
</rdf:RDF>
</metadata>
  <g
     transform="matrix(-0.1,0,0,-0.1,1280.0965,640)"
     id="g150"
     style="fill:#000000;stroke:none">
    <path
       d="M 4210,3980 V 2860 h 115 c 63,0 123,-4 133,-10 9,-5 107,-44 217,-85 110,-42 216,-82 235,-89 l 35,-14 3,-71 3,-71 h -136 c -95,0 -146,4 -170,14 -70,30 -177,41 -264,27 -45,-6 -97,-19 -116,-27 -28,-11 -104,-14 -404,-14 -359,0 -371,1 -381,20 -6,11 -27,31 -48,45 l -37,25 h -522 -523 v 35 35 h 158 157 l 113,75 112,75 v 218 c 0,206 -1,218 -20,230 -19,12 -20,23 -20,242 v 230 h -30 -30 v 270 270 l 53,1 c 50,0 51,1 30,16 -17,11 -23,25 -23,54 0,34 -3,38 -27,41 l -28,3 -3,119 c -2,72 1,123 8,131 8,9 -4,24 -45,60 -31,26 -59,44 -63,41 -3,-4 7,-18 23,-30 17,-13 41,-33 55,-44 l 25,-21 -63,-1 h -63 l 2,-127 1,-128 -36,-3 c -34,-3 -36,-5 -36,-39 0,-20 -7,-45 -17,-55 -15,-17 -14,-18 38,-18 h 54 l -2,-267 -2,-268 -31,-3 -30,-3 v -223 -222 l -77,-57 c -71,-52 -81,-57 -129,-57 h -53 l -3,518 -3,517 -23,48 c -13,26 -40,61 -60,77 -68,56 -101,60 -474,60 h -338 v 40 40 h 50 c 36,0 50,-4 50,-14 0,-7 7,-19 15,-26 22,-18 45,4 46,44 0,30 1,29 22,-18 l 23,-50 12,41 c 15,52 6,103 -19,103 -10,0 -21,-6 -26,-12 -5,-9 -9,-3 -13,17 -4,24 -10,30 -30,30 -20,0 -26,-6 -28,-29 -3,-28 -5,-28 -50,-23 -26,4 -159,9 -297,13 -225,6 -252,9 -275,26 l -25,19 -7,-27 c -8,-30 1,-144 11,-144 3,0 15,7 25,15 11,8 32,15 48,15 25,0 28,-3 28,-35 v -35 h -80 c -64,0 -80,3 -80,15 0,8 -4,15 -10,15 -6,0 -10,80 -10,220 0,245 3,237 -69,201 -93,-48 -158,-168 -180,-335 -6,-44 -16,-85 -22,-92 -7,-8 -6,-15 2,-20 15,-9 -42,-32 -83,-33 -37,-1 -162,-57 -218,-97 -50,-36 -98,-94 -78,-94 7,0 44,7 82,15 38,8 71,14 72,12 1,-1 -56,-146 -127,-321 L 79,3567 80,3108 81,2650 H 53 c -54,0 -54,3 -51,-271 l 3,-254 60,-3 c 69,-4 85,9 85,69 0,22 5,39 14,42 8,3 42,42 75,86 53,70 66,81 92,81 h 30 l -44,-57 c -79,-102 -116,-191 -137,-335 -20,-135 23,-308 106,-434 65,-98 192,-197 303,-236 72,-26 202,-34 283,-19 70,14 187,72 255,128 206,169 279,481 174,743 -22,52 -55,107 -108,177 -19,25 -22,33 -10,33 8,0 46,-36 83,-80 55,-64 74,-80 96,-80 h 28 v -180 -180 h 28 c 35,0 72,-37 72,-73 0,-46 31,-57 161,-57 128,0 149,9 149,64 0,36 35,65 78,66 h 32 v 180 180 h 50 50 v -137 c 0,-168 14,-202 95,-243 l 50,-25 h 605 c 602,0 605,0 653,22 30,14 54,34 68,57 l 21,36 h 184 184 v -48 c 0,-138 76,-309 186,-418 127,-126 271,-182 437,-171 141,9 256,64 367,176 106,107 159,226 185,414 l 6,47 h 144 144 l 5,-47 c 28,-232 128,-401 299,-507 93,-57 153,-77 254,-83 108,-7 189,10 281,58 96,51 154,99 213,177 203,268 160,663 -95,880 -75,64 -196,120 -289,134 -84,13 -193,1 -262,-28 -25,-10 -78,-14 -190,-14 h -155 v 84 85 l 233,75 c 127,42 240,81 249,86 10,6 83,10 163,10 h 145 v -149 -149 l 33,-19 c 62,-37 168,-135 188,-174 18,-37 23,-40 57,-37 l 37,3 3,263 2,262 h 658 657 l 48,-57 c 46,-56 47,-59 47,-125 v -68 h -238 c -219,0 -240,-2 -255,-18 -24,-27 -25,-303 -1,-326 14,-14 78,-16 557,-16 298,0 547,4 553,8 27,17 34,56 34,177 0,120 -1,127 -25,150 l -24,25 h -256 -255 v 71 c 0,68 2,72 43,124 l 42,54 h 448 l 447,1 v -130 -130 h 1805 1805 v -425 -425 h 25 25 v 420 c 0,365 2,421 15,426 12,5 15,30 15,135 v 129 h 60 60 V 3980 5100 H 8505 4210 Z m -2800,470 v -40 h -149 c -82,0 -157,-3 -166,-6 -14,-6 -16,0 -13,32 l 3,39 120,5 c 66,4 139,7 163,8 l 42,2 z m 297,-2590 c 14,-11 36,-20 49,-20 17,0 24,-6 24,-19 0,-49 -5,-51 -129,-51 -124,0 -141,6 -141,47 0,17 6,23 23,23 13,0 32,9 42,20 13,14 31,20 62,20 30,0 54,-7 70,-20 z"
       id="path86"
       inkscape:connector-curvature="0" />
    <path
       d="m 3770,4295 v -645 h 215 215 l -2,643 -3,642 -212,3 -213,2 z"
       id="path88"
       inkscape:connector-curvature="0" />
    <path
       d="m 4047,3423 c -4,-3 -7,-80 -7,-170 v -163 h 75 75 v 170 170 h -68 c -38,0 -72,-3 -75,-7 z"
       id="path90"
       inkscape:connector-curvature="0" />
    <path
       d="m 3654,3288 c -4,-7 -3,-8 5,-4 6,4 20,2 29,-6 15,-12 16,-11 3,5 -16,20 -27,22 -37,5 z"
       id="path92"
       inkscape:connector-curvature="0" />
    <path
       d="m 3800,3296 c 0,-2 8,-10 18,-17 15,-13 16,-12 3,4 -13,16 -21,21 -21,13 z"
       id="path94"
       inkscape:connector-curvature="0" />
    <path
       d="m 3536,3282 c -2,-4 4,-8 14,-8 10,0 16,4 14,8 -3,4 -9,8 -14,8 -5,0 -11,-4 -14,-8 z"
       id="path96"
       inkscape:connector-curvature="0" />
    <path
       d="m 3010,3240 c 0,-22 2,-40 4,-40 2,0 6,18 8,40 2,22 0,40 -4,40 -5,0 -8,-18 -8,-40 z"
       id="path98"
       inkscape:connector-curvature="0" />
    <path
       d="m 3310,3266 c 0,-2 7,-7 16,-10 8,-3 12,-2 9,4 -6,10 -25,14 -25,6 z"
       id="path100"
       inkscape:connector-curvature="0" />
    <path
       d="m 3962,3230 c 0,-19 2,-27 5,-17 2,9 2,25 0,35 -3,9 -5,1 -5,-18 z"
       id="path102"
       inkscape:connector-curvature="0" />
    <path
       d="m 3521,3224 c 0,-11 3,-14 6,-6 3,7 2,16 -1,19 -3,4 -6,-2 -5,-13 z"
       id="path104"
       inkscape:connector-curvature="0" />
    <path
       d="m 3992,3190 c 0,-14 2,-19 5,-12 2,6 2,18 0,25 -3,6 -5,1 -5,-13 z"
       id="path106"
       inkscape:connector-curvature="0" />
    <path
       d="m 3691,3184 c 0,-11 3,-14 6,-6 3,7 2,16 -1,19 -3,4 -6,-2 -5,-13 z"
       id="path108"
       inkscape:connector-curvature="0" />
    <path
       d="m 3921,3174 c 0,-11 3,-14 6,-6 3,7 2,16 -1,19 -3,4 -6,-2 -5,-13 z"
       id="path110"
       inkscape:connector-curvature="0" />
    <path
       d="m 3651,3170 c -1,-20 27,-56 36,-47 3,4 0,13 -9,20 -9,6 -18,19 -21,27 -5,13 -5,13 -6,0 z"
       id="path112"
       inkscape:connector-curvature="0" />
    <path
       d="m 3970,3166 c 0,-2 8,-10 18,-17 15,-13 16,-12 3,4 -13,16 -21,21 -21,13 z"
       id="path114"
       inkscape:connector-curvature="0" />
    <path
       d="m 3013,3133 c -12,-13 -18,-23 -14,-23 5,0 14,7 21,15 10,12 16,13 29,3 14,-12 15,-11 1,7 -8,11 -14,20 -15,21 0,0 -10,-10 -22,-23 z"
       id="path116"
       inkscape:connector-curvature="0" />
    <path
       d="m 3310,3145 c 0,-5 5,-17 10,-25 5,-8 10,-10 10,-5 0,6 -5,17 -10,25 -5,8 -10,11 -10,5 z"
       id="path118"
       inkscape:connector-curvature="0" />
    <path
       d="m 3773,3135 c 0,-8 8,-16 18,-18 11,-3 16,0 12,8 -7,19 -30,26 -30,10 z"
       id="path120"
       inkscape:connector-curvature="0" />
    <path
       d="m 3235,3130 c -8,-12 12,-40 28,-40 6,0 3,6 -8,13 -10,8 -15,19 -11,25 4,7 5,12 2,12 -3,0 -8,-5 -11,-10 z"
       id="path122"
       inkscape:connector-curvature="0" />
    <path
       d="m 3444,3113 c -13,-20 -13,-25 -2,-16 8,7 17,11 19,8 3,-2 5,5 5,15 0,25 0,25 -22,-7 z"
       id="path124"
       inkscape:connector-curvature="0" />
    <path
       d="m 3547,3127 c -3,-7 3,-13 14,-13 13,0 15,3 7,13 -6,7 -12,13 -13,13 -2,0 -5,-6 -8,-13 z"
       id="path126"
       inkscape:connector-curvature="0" />
    <path
       d="m 3508,3103 c 7,-3 16,-2 19,1 4,3 -2,6 -13,5 -11,0 -14,-3 -6,-6 z"
       id="path128"
       inkscape:connector-curvature="0" />
    <path
       d="m 8744,2630 c 0,-124 2,-174 3,-112 2,61 2,163 0,225 -1,61 -3,11 -3,-113 z"
       id="path130"
       inkscape:connector-curvature="0" />
    <path
       d="m 6890,2505 c 0,-306 -1,-335 -17,-335 -9,0 -36,-20 -60,-45 -40,-42 -43,-50 -43,-98 0,-154 207,-214 296,-86 38,55 37,114 -1,168 -16,24 -41,46 -61,53 l -34,12 v 333 333 h -40 -40 z"
       id="path132"
       inkscape:connector-curvature="0" />
    <path
       d="m 9983,2555 c -159,-35 -324,-169 -402,-325 -90,-185 -93,-384 -6,-567 43,-93 91,-156 162,-215 219,-182 493,-185 715,-7 170,137 260,362 229,576 -31,218 -146,387 -330,486 -115,62 -240,80 -368,52 z"
       id="path134"
       inkscape:connector-curvature="0" />
    <path
       d="m 11465,2558 c -72,-13 -201,-80 -266,-138 -175,-154 -252,-403 -197,-640 6,-25 28,-83 50,-130 54,-113 167,-228 278,-282 359,-175 770,71 823,494 25,198 -41,389 -182,528 -147,145 -320,203 -506,168 z"
       id="path136"
       inkscape:connector-curvature="0" />
    <path
       d="m 10390,2555 c 0,-2 19,-14 41,-26 47,-24 118,-87 190,-170 41,-48 52,-69 76,-155 15,-54 29,-133 32,-174 l 6,-75 98,-3 97,-3 v 63 c 0,51 9,84 47,180 l 46,118 121,125 121,125 h -437 c -241,0 -438,-2 -438,-5 z"
       id="path138"
       inkscape:connector-curvature="0" />
    <path
       d="m 11959,2488 c 44,-35 98,-87 119,-118 46,-65 95,-182 112,-262 6,-32 13,-58 15,-58 2,0 56,62 119,137 l 116,137 v 113 113 h -281 -281 z"
       id="path140"
       inkscape:connector-curvature="0" />
    <path
       d="m 8801,2394 c 0,-11 3,-14 6,-6 3,7 2,16 -1,19 -3,4 -6,-2 -5,-13 z"
       id="path142"
       inkscape:connector-curvature="0" />
    <path
       d="m 8679,2263 -24,-28 28,24 c 15,14 27,26 27,28 0,8 -8,1 -31,-24 z"
       id="path144"
       inkscape:connector-curvature="0" />
    <path
       d="m 8719,2213 c -13,-16 -12,-17 4,-4 16,13 21,21 13,21 -2,0 -10,-8 -17,-17 z"
       id="path146"
       inkscape:connector-curvature="0" />
    <path
       d="m 7743,2193 c 141,-2 373,-2 515,0 141,1 25,2 -258,2 -283,0 -399,-1 -257,-2 z"
       id="path148"
       inkscape:connector-curvature="0" />
  </g>
</svg>
